HIERARCHY
ROOT Root
{
  OFFSET 0.0 0.0 0.0
  CHANNELS 6 Xposition Yposition Zposition Zrotation Yrotation Xrotation
  JOINT Hips
  {
    OFFSET 0.0 100.0 0.0
    CHANNELS 6 Xposition Yposition Zposition Zrotation Yrotation Xrotation
    JOINT Spine1
    {
      OFFSET -0.013727 5.003763 -0.053727
      CHANNELS 3 Zrotation Yrotation Xrotation
      JOINT Spine2
      {
        OFFSET -0.0 7.125301 -0.029825
        CHANNELS 3 Zrotation Yrotation Xrotation
        JOINT Chest
        {
          OFFSET -1e-06 7.550063 -0.815971
          CHANNELS 3 Zrotation Yrotation Xrotation
          JOINT Neck1
          {
            OFFSET -0.181677 26.311295 -0.553348
            CHANNELS 3 Zrotation Yrotation Xrotation
            JOINT Neck2
            {
              OFFSET -3e-06 7.709397 2.302585
              CHANNELS 3 Zrotation Yrotation Xrotation
              JOINT Head
              {
                OFFSET -5e-06 6.128916 1.953709
                CHANNELS 3 Zrotation Yrotation Xrotation
                JOINT HeadEnd
                {
                  OFFSET 0.003598 16.065403 -1.835379
                  CHANNELS 3 Zrotation Yrotation Xrotation
                }
                JOINT Jaw
                {
                  OFFSET 0.002637 0.475592 3.094941
                  CHANNELS 3 Zrotation Yrotation Xrotation
                }
                JOINT LeftEye
                {
                  OFFSET 3.206381 5.380205 7.586883
                  CHANNELS 3 Zrotation Yrotation Xrotation
                }
                JOINT RightEye
                {
                  OFFSET -3.22244 5.361869 7.558234
                  CHANNELS 3 Zrotation Yrotation Xrotation
                }
              }
            }
          }
          JOINT LeftShoulder
          {
            OFFSET 1.621652 23.237164 5.113413
            CHANNELS 3 Zrotation Yrotation Xrotation
            JOINT LeftArm
            {
              OFFSET 14.919846 2e-06 -5.502326
              CHANNELS 3 Zrotation Yrotation Xrotation
              JOINT LeftForeArm
              {
                OFFSET 28.739307 0.0 -0.002588
                CHANNELS 3 Zrotation Yrotation Xrotation
                JOINT LeftHand
                {
                  OFFSET 27.093981 -1e-06 0.002609
                  CHANNELS 3 Zrotation Yrotation Xrotation
                  JOINT LeftHandThumb1
                  {
                    OFFSET 2.276482 -1.392045 3.191413
                    CHANNELS 3 Zrotation Yrotation Xrotation
                    JOINT LeftHandThumb2
                    {
                      OFFSET 4.012836 -1.828127 1.641654
                      CHANNELS 3 Zrotation Yrotation Xrotation
                      JOINT LeftHandThumb3
                      {
                        OFFSET 2.798515 0.0 -3e-06
                        CHANNELS 3 Zrotation Yrotation Xrotation
                        JOINT LeftHandThumbEnd
                        {
                          OFFSET 3.180793 -4e-06 4e-06
                          CHANNELS 3 Zrotation Yrotation Xrotation
                        }
                      }
                    }
                  }
                  JOINT LeftHandIndex1
                  {
                    OFFSET 3.247555 -0.531998 2.296169
                    CHANNELS 3 Zrotation Yrotation Xrotation
                    JOINT LeftHandIndex2
                    {
                      OFFSET 6.364578 0.01206 0.1786
                      CHANNELS 3 Zrotation Yrotation Xrotation
                      JOINT LeftHandIndex3
                      {
                        OFFSET 3.662364 0.0 0.0
                        CHANNELS 3 Zrotation Yrotation Xrotation
                        JOINT LeftHandIndex4
                        {
                          OFFSET 2.329242 4e-06 4e-06
                          CHANNELS 3 Zrotation Yrotation Xrotation
                          JOINT LeftHandIndexEnd
                          {
                            OFFSET 2.759615 -0.180537 -0.113024
                            CHANNELS 3 Zrotation Yrotation Xrotation
                          }
                        }
                      }
                    }
                  }
                  JOINT LeftHandMiddle1
                  {
                    OFFSET 3.163495 0.240981 1.000332
                    CHANNELS 3 Zrotation Yrotation Xrotation
                    JOINT LeftHandMiddle2
                    {
                      OFFSET 6.19078 -0.259278 -1.002548
                      CHANNELS 3 Zrotation Yrotation Xrotation
                      JOINT LeftHandMiddle3
                      {
                        OFFSET 4.35652 -4e-06 -1e-06
                        CHANNELS 3 Zrotation Yrotation Xrotation
                        JOINT LeftHandMiddle4
                        {
                          OFFSET 2.996877 -8e-06 0.0
                          CHANNELS 3 Zrotation Yrotation Xrotation
                          JOINT LeftHandMiddleEnd
                          {
                            OFFSET 2.304287 -0.294569 -0.031741
                            CHANNELS 3 Zrotation Yrotation Xrotation
                          }
                        }
                      }
                    }
                  }
                  JOINT LeftHandRing1
                  {
                    OFFSET 2.882643 -0.053652 -0.322543
                    CHANNELS 3 Zrotation Yrotation Xrotation
                    JOINT LeftHandRing2
                    {
                      OFFSET 5.854541 -0.486202 -1.373841
                      CHANNELS 3 Zrotation Yrotation Xrotation
                      JOINT LeftHandRing3
                      {
                        OFFSET 4.350578 0.0 3e-06
                        CHANNELS 3 Zrotation Yrotation Xrotation
                        JOINT LeftHandRing4
                        {
                          OFFSET 2.651321 7e-06 2e-06
                          CHANNELS 3 Zrotation Yrotation Xrotation
                          JOINT LeftHandRingEnd
                          {
                            OFFSET 1.936105 0.077687 -7.1e-05
                            CHANNELS 3 Zrotation Yrotation Xrotation
                          }
                        }
                      }
                    }
                  }
                  JOINT LeftHandPinky1
                  {
                    OFFSET 2.8655 -0.310005 -1.600378
                    CHANNELS 3 Zrotation Yrotation Xrotation
                    JOINT LeftHandPinky2
                    {
                      OFFSET 5.087849 -1.331141 -1.77123
                      CHANNELS 3 Zrotation Yrotation Xrotation
                      JOINT LeftHandPinky3
                      {
                        OFFSET 3.070974 4e-06 0.0
                        CHANNELS 3 Zrotation Yrotation Xrotation
                        JOINT LeftHandPinky4
                        {
                          OFFSET 1.549672 0.0 1e-06
                          CHANNELS 3 Zrotation Yrotation Xrotation
                          JOINT LeftHandPinkyEnd
                          {
                            OFFSET 1.944893 -0.157802 0.057219
                            CHANNELS 3 Zrotation Yrotation Xrotation
                          }
                        }
                      }
                    }
                  }
                }
              }
            }
          }
          JOINT RightShoulder
          {
            OFFSET -1.380118 23.180309 5.214158
            CHANNELS 3 Zrotation Yrotation Xrotation
            JOINT RightArm
            {
              OFFSET -15.037196 1.2e-05 -5.545604
              CHANNELS 3 Zrotation Yrotation Xrotation
              JOINT RightForeArm
              {
                OFFSET -28.736639 2e-06 -0.002597
                CHANNELS 3 Zrotation Yrotation Xrotation
                JOINT RightHand
                {
                  OFFSET -27.133619 -0.0 0.002613
                  CHANNELS 3 Zrotation Yrotation Xrotation
                  JOINT RightHandThumb1
                  {
                    OFFSET -2.274032 -1.383988 3.163127
                    CHANNELS 3 Zrotation Yrotation Xrotation
                    JOINT RightHandThumb2
                    {
                      OFFSET -4.011429 -1.827466 1.640914
                      CHANNELS 3 Zrotation Yrotation Xrotation
                      JOINT RightHandThumb3
                      {
                        OFFSET -2.794935 -4e-06 -3e-06
                        CHANNELS 3 Zrotation Yrotation Xrotation
                        JOINT RightHandThumbEnd
                        {
                          OFFSET -3.183852 4e-06 1e-06
                          CHANNELS 3 Zrotation Yrotation Xrotation
                        }
                      }
                    }
                  }
                  JOINT RightHandIndex1
                  {
                    OFFSET -3.253266 -0.520057 2.282866
                    CHANNELS 3 Zrotation Yrotation Xrotation
                    JOINT RightHandIndex2
                    {
                      OFFSET -6.341917 0.012471 0.178266
                      CHANNELS 3 Zrotation Yrotation Xrotation
                      JOINT RightHandIndex3
                      {
                        OFFSET -3.654871 -8e-06 -0.0
                        CHANNELS 3 Zrotation Yrotation Xrotation
                        JOINT RightHandIndex4
                        {
                          OFFSET -2.327586 0.0 1e-06
                          CHANNELS 3 Zrotation Yrotation Xrotation
                          JOINT RightHandIndexEnd
                          {
                            OFFSET -2.76179 -0.180656 -0.113078
                            CHANNELS 3 Zrotation Yrotation Xrotation
                          }
                        }
                      }
                    }
                  }
                  JOINT RightHandMiddle1
                  {
                    OFFSET -3.168106 0.246593 1.00103
                    CHANNELS 3 Zrotation Yrotation Xrotation
                    JOINT RightHandMiddle2
                    {
                      OFFSET -6.180828 -0.258836 -1.000895
                      CHANNELS 3 Zrotation Yrotation Xrotation
                      JOINT RightHandMiddle3
                      {
                        OFFSET -4.348901 0.0 -0.0
                        CHANNELS 3 Zrotation Yrotation Xrotation
                        JOINT RightHandMiddle4
                        {
                          OFFSET -3.00024 -4e-06 -2e-06
                          CHANNELS 3 Zrotation Yrotation Xrotation
                          JOINT RightHandMiddleEnd
                          {
                            OFFSET -2.30252 -0.29437 -0.031706
                            CHANNELS 3 Zrotation Yrotation Xrotation
                          }
                        }
                      }
                    }
                  }
                  JOINT RightHandRing1
                  {
                    OFFSET -2.88569 -0.067952 -0.308858
                    CHANNELS 3 Zrotation Yrotation Xrotation
                    JOINT RightHandRing2
                    {
                      OFFSET -5.854198 -0.48613 -1.373731
                      CHANNELS 3 Zrotation Yrotation Xrotation
                      JOINT RightHandRing3
                      {
                        OFFSET -4.33881 -4e-06 -0.0
                        CHANNELS 3 Zrotation Yrotation Xrotation
                        JOINT RightHandRing4
                        {
                          OFFSET -2.654903 -4e-06 4e-06
                          CHANNELS 3 Zrotation Yrotation Xrotation
                          JOINT RightHandRingEnd
                          {
                            OFFSET -1.933568 0.077527 -5.2e-05
                            CHANNELS 3 Zrotation Yrotation Xrotation
                          }
                        }
                      }
                    }
                  }
                  JOINT RightHandPinky1
                  {
                    OFFSET -2.866425 -0.342796 -1.584145
                    CHANNELS 3 Zrotation Yrotation Xrotation
                    JOINT RightHandPinky2
                    {
                      OFFSET -5.091371 -1.332055 -1.772385
                      CHANNELS 3 Zrotation Yrotation Xrotation
                      JOINT RightHandPinky3
                      {
                        OFFSET -3.062664 -4e-06 1e-06
                        CHANNELS 3 Zrotation Yrotation Xrotation
                        JOINT RightHandPinky4
                        {
                          OFFSET -1.546529 4e-06 -2e-06
                          CHANNELS 3 Zrotation Yrotation Xrotation
                          JOINT RightHandPinkyEnd
                          {
                            OFFSET -1.945119 -0.157718 0.057211
                            CHANNELS 3 Zrotation Yrotation Xrotation
                          }
                        }
                      }
                    }
                  }
                }
              }
            }
          }
        }
      }
    }
    JOINT LeftLeg
    {
      OFFSET 10.043214 -8.434526 2.595655
      CHANNELS 3 Zrotation Yrotation Xrotation
      JOINT LeftShin
      {
        OFFSET -1e-06 -43.221752 -0.802913
        CHANNELS 3 Zrotation Yrotation Xrotation
        JOINT LeftFoot
        {
          OFFSET 1e-06 -42.155094 -3.481523
          CHANNELS 3 Zrotation Yrotation Xrotation
          JOINT LeftToeBase
          {
            OFFSET 0.0 -5.059472 13.231529
            CHANNELS 3 Zrotation Yrotation Xrotation
            JOINT LeftToeEnd
            {
              OFFSET -0.009607 -1.647619 6.513017
              CHANNELS 3 Zrotation Yrotation Xrotation
            }
          }
        }
      }
    }
    JOINT RightLeg
    {
      OFFSET -10.047278 -8.29526 2.620317
      CHANNELS 3 Zrotation Yrotation Xrotation
      JOINT RightShin
      {
        OFFSET 1e-06 -43.362206 -0.805556
        CHANNELS 3 Zrotation Yrotation Xrotation
        JOINT RightFoot
        {
          OFFSET 2e-06 -42.117393 -3.478398
          CHANNELS 3 Zrotation Yrotation Xrotation
          JOINT RightToeBase
          {
            OFFSET -0.0 -5.079609 13.284196
            CHANNELS 3 Zrotation Yrotation Xrotation
            JOINT RightToeEnd
            {
              OFFSET 0.009532 -1.634378 6.460591
              CHANNELS 3 Zrotation Yrotation Xrotation
            }
          }
        }
      }
    }
  }
}
MOTION
Frames: 4
Frame Time: 0.03333333333333333
0.0 0.0 0.0 0.0 -0.0 0.0 -0.235615 48.15654 118.371216 -5.55007 -6.048676 44.247883 -1.754198 1.795671 16.2831 -1.103405 4.187804 4.105521 -5.671452 4.032338 23.695917 -2.376042 1.611885 -23.569118 0.206635 0.341447 -3.639682 4.324329 -1.142789 -10.91569 7.7e-05 -2.2e-05 6e-06 -0.062714 0.049469 -0.131602 0.635561 -3.541076 -10.350955 -0.763779 3.632691 -10.238927 2.363242 -12.603711 5.523854 -34.303993 -61.894207 -9.78772 -0.462474 -14.415451 0.083664 81.695587 -36.439358 -17.806118 -5.882098 9.861276 0.702589 -10.93686 -0.360578 7.156198 2e-06 8.774821 -1e-06 -14.007151 18.449846 6.71678 -1.84403 2.498502 -2.507276 -10.163589 4.678938 4.621105 -20.976002 -8e-06 4e-06 -21.226259 2.451691 -3.593995 0.0 -6e-06 0.0 -1.362679 2.240796 -0.746323 -21.334892 0.584904 3.00832 -13.8212 -5e-06 3e-06 -23.887146 -0.249082 -0.839478 -59.670322 2.306379 -0.41096 -0.294024 1.679686 0.833255 -14.218195 0.093213 1.300579 -34.212013 -0.28757 0.967173 -20.033194 0.964534 1.212845 0.0 1e-06 0.0 -3.440386 0.788232 0.501655 -15.928168 -3.167311 2.999704 -6.33882 -2e-06 1e-06 -18.123425 3.648176 -4.905663 -5e-06 1e-06 -3e-06 -24.30876 38.786896 -0.453935 -8.538453 16.445013 -58.101791 2.5657 13.306367 0.401867 -29.489971 13.363839 -3.856981 2.24354 -5.255031 -3.180154 14.282875 -0.826593 6.952496 -2e-06 -12.690593 1e-06 16.782852 -18.03252 1.929147 1.665663 -1.955919 -2.878296 4.727793 -4.170584 4.99392 11.020515 3e-06 -1e-06 12.109039 -3.735711 -2.866781 1e-06 -0.0 1e-06 1.291984 -1.928548 -1.498088 14.800114 0.567468 3.865604 14.242558 -1.341733 -6.660652 19.631945 0.143928 -0.648244 50.232521 -0.219005 -6.402544 0.353027 -1.511149 -0.03194 20.222771 3.684307 2.316627 18.787252 6e-06 -0.0 10.751617 -0.479868 1.397905 0.0 0.0 0.0 3.273804 0.305947 -0.580111 21.48679 11.830365 2.266129 8.162919 2e-06 -0.0 18.399063 -3.798981 -4.940569 3e-06 0.0 -1e-06 -0.005808 12.31504 -84.943703 0.976729 1.744868 133.857773 -11.899345 -25.34543 48.76968 1.614499 -1.403938 0.007545 -1e-06 -1e-06 0.0 -1.434361 -1.641369 -39.665276 0.509574 2.218384 94.094589 15.413864 11.295468 42.668068 -1.584694 0.660334 -6.374348 0.0 0.0 -3e-06 
0.0 0.0 0.0 0.0 -0.0 0.0 0.006357 47.60648 120.715866 -6.851019 -7.140581 44.054096 -1.778044 2.006398 16.129812 -1.146213 4.593001 3.981262 -5.94191 4.60498 23.887239 -2.339996 1.608444 -23.228395 0.363112 0.839901 -3.659189 4.098864 -0.40838 -11.386842 7.7e-05 -2.2e-05 6e-06 -0.076283 0.067767 -0.140729 0.623633 -3.512044 -10.37267 -0.777737 3.638044 -10.249799 0.893658 -12.660764 6.092251 -36.491497 -60.109756 -7.303687 -0.228684 -14.377431 0.035814 83.412598 -37.515888 -18.580793 -5.882102 9.861278 0.702589 -10.936864 -0.360573 7.156199 -1e-06 8.774816 -1e-06 -14.112787 18.459042 6.628511 -1.844032 2.498503 -2.507277 -10.16359 4.678942 4.621105 -20.976006 -1e-06 2e-06 -21.226269 2.451695 -3.593998 1e-06 -6e-06 0.0 -1.36268 2.240797 -0.746323 -21.334896 0.584911 3.00832 -13.821205 -1e-06 3e-06 -23.887152 -0.249078 -0.839484 -59.680752 2.268256 -0.463545 -0.294025 1.679687 0.833256 -14.218197 0.093215 1.30058 -34.212013 -0.287562 0.967168 -20.033194 0.964538 1.212841 0.0 1e-06 0.0 -3.440386 0.788233 0.501655 -15.928174 -3.167304 2.999704 -6.338823 1e-06 1e-06 -18.12343 3.648179 -4.905667 -6e-06 1e-06 -2e-06 -24.57024 38.807274 -0.302313 -8.105044 17.374779 -57.51667 2.164129 13.577145 0.328665 -30.111244 12.73693 -4.265834 2.243538 -5.255034 -3.180157 14.282881 -0.826592 6.952501 -2e-06 -12.690596 -1e-06 16.912983 -17.998825 1.897614 1.665665 -1.955921 -2.878297 4.727795 -4.170584 4.993921 11.020517 3e-06 -1e-06 12.10904 -3.735713 -2.866783 1e-06 -0.0 1e-06 1.291985 -1.928548 -1.498089 14.800118 0.567469 3.865607 14.242562 -1.341735 -6.660656 19.631954 0.143926 -0.648243 50.345825 -0.191471 -6.369516 0.353028 -1.511149 -0.03194 20.222775 3.684308 2.316631 18.787256 5e-06 0.0 10.751619 -0.479868 1.397906 0.0 0.0 0.0 3.273805 0.305947 -0.580111 21.486799 11.830368 2.266134 8.162922 2e-06 1e-06 18.399071 -3.798982 -4.94057 3e-06 0.0 -1e-06 -0.910528 12.617363 -84.782005 1.061893 1.954228 131.625885 -13.665047 -23.598644 53.468479 1.559188 -1.419966 0.371014 0.0 1e-06 2e-06 -1.768378 -1.171625 -36.358566 0.545557 2.486279 91.230194 14.267353 11.570691 42.561871 -1.589486 0.635307 -6.88988 0.0 0.0 -2e-06 
0.0 0.0 0.0 0.0 -0.0 0.0 0.140736 46.904751 123.374687 -7.757827 -7.814284 43.99654 -1.801177 2.114163 15.89881 -1.046267 4.832283 3.961247 -6.407671 4.698042 23.784245 -1.775941 1.716843 -22.666048 0.459732 1.339484 -3.605953 3.86632 0.398942 -11.920605 7.7e-05 -2.3e-05 7e-06 -0.074816 0.07629 -0.126425 0.613407 -3.512474 -10.428188 -0.763362 3.650103 -10.289258 -0.554093 -12.99465 6.749453 -38.286942 -57.699493 -5.03066 0.142073 -14.223786 0.010762 85.262169 -38.164818 -19.430861 -5.882102 9.861276 0.70259 -10.936859 -0.360574 7.156196 0.0 8.774816 -0.0 -14.039719 18.489128 6.491652 -1.84403 2.498502 -2.507275 -10.163589 4.67894 4.621103 -20.976006 -1e-06 1e-06 -21.226269 2.451696 -3.593999 0.0 -6e-06 0.0 -1.362681 2.240797 -0.746322 -21.334894 0.58491 3.008318 -13.8212 -1e-06 2e-06 -23.887146 -0.249079 -0.839483 -59.486015 2.242635 -0.770669 -0.294024 1.679685 0.833255 -14.218195 0.093216 1.300578 -34.212013 -0.287563 0.967164 -20.033194 0.964536 1.212838 -0.0 1e-06 -0.0 -3.440386 0.788232 0.501655 -15.928172 -3.167306 2.999702 -6.338819 -0.0 2e-06 -18.123432 3.648181 -4.905668 -5e-06 1e-06 -2e-06 -24.643171 38.321018 -0.28373 -6.982193 19.568123 -56.372643 1.720263 14.450165 0.293841 -32.210033 11.940234 -4.52073 2.243539 -5.255031 -3.180152 14.282881 -0.826595 6.952494 -1e-06 -12.690593 0.0 16.958395 -18.027269 2.040742 1.665666 -1.95592 -2.878295 4.727797 -4.170584 4.993918 11.020519 2e-06 -1e-06 12.109043 -3.735713 -2.86678 0.0 0.0 0.0 1.291984 -1.928547 -1.498086 14.800118 0.567467 3.865602 14.24256 -1.341736 -6.66065 19.631954 0.143925 -0.648243 50.50499 -0.259544 -6.28018 0.353029 -1.51115 -0.03194 20.222775 3.684305 2.316627 18.78726 4e-06 -1e-06 10.75162 -0.479868 1.397904 -0.0 0.0 0.0 3.273804 0.305947 -0.58011 21.486799 11.830364 2.266128 8.162919 1e-06 -1e-06 18.399071 -3.798982 -4.940573 3e-06 0.0 -1e-06 -1.161321 12.602364 -83.186958 1.088817 2.079621 129.504837 -14.943539 -22.628582 56.925751 1.569543 -1.510864 0.892276 0.0 0.0 2e-06 -2.260185 -1.288993 -32.753429 0.590776 2.716996 87.771996 13.24823 12.018662 43.099289 -1.531499 0.682381 -6.889556 0.0 0.0 -3e-06 
0.0 0.0 0.0 0.0 -0.0 0.0 0.15131 46.45047 126.271591 -7.35395 -8.026297 44.193127 -2.055937 2.061145 15.610326 -1.115539 4.560959 3.710354 -6.822015 4.431631 23.615339 -0.783309 1.597594 -21.893465 0.779742 1.849087 -3.66705 3.544392 0.965708 -12.620783 7.7e-05 -2.2e-05 7e-06 -0.020956 0.029874 -0.163177 0.661341 -3.566545 -10.508762 -0.703236 3.613819 -10.345836 -1.908954 -14.243815 7.472752 -39.52927 -54.233387 -3.938855 0.463912 -14.399251 -0.030498 86.86808 -39.402096 -20.005001 -5.882105 9.861281 0.702591 -10.936869 -0.360574 7.156203 1e-06 8.774821 -0.0 -14.494891 18.494562 6.389342 -1.844031 2.498503 -2.507276 -10.163599 4.678944 4.621106 -20.976021 -1e-06 4e-06 -21.226282 2.451698 -3.593996 -0.0 -6e-06 1e-06 -1.362682 2.240797 -0.746323 -21.334909 0.584912 3.008321 -13.821212 -1e-06 3e-06 -23.887165 -0.249078 -0.839482 -59.684978 2.053098 -0.536647 -0.294025 1.679687 0.833256 -14.218205 0.093216 1.30058 -34.212048 -0.28756 0.96717 -20.033209 0.964538 1.212842 -0.0 1e-06 0.0 -3.440388 0.788234 0.501657 -15.928183 -3.167307 2.999705 -6.338824 -0.0 3e-06 -18.123444 3.648182 -4.905667 -5e-06 0.0 -2e-06 -24.089931 36.754337 0.052639 -5.169038 23.024771 -55.997452 1.32969 16.13493 0.204688 -35.518024 11.989043 -3.082045 2.243541 -5.255033 -3.180155 14.282883 -0.826596 6.952495 -2e-06 -12.690597 2e-06 17.141478 -17.840075 1.927586 1.665667 -1.95592 -2.878297 4.727796 -4.170585 4.993919 11.02052 2e-06 -3e-06 12.109048 -3.735713 -2.866783 0.0 0.0 1e-06 1.291987 -1.928548 -1.498088 14.800118 0.567466 3.865602 14.242562 -1.341736 -6.660654 19.631958 0.143927 -0.648247 50.69743 -0.259409 -6.317946 0.353029 -1.511149 -0.03194 20.222778 3.684305 2.316624 18.787262 4e-06 -4e-06 10.75162 -0.479868 1.397903 -1e-06 -0.0 -0.0 3.273805 0.305946 -0.580111 21.486799 11.830366 2.266125 8.162921 1e-06 -2e-06 18.399075 -3.798982 -4.940576 2e-06 1e-06 -1e-06 -2.020632 11.620261 -80.679298 1.01018 2.180664 128.062195 -14.799982 -20.609844 56.791271 1.709093 -1.429343 1.201752 1e-06 -0.0 1e-06 -3.418133 -2.904947 -29.121302 0.703764 3.05601 83.478195 12.62056 13.158677 44.260605 -1.486442 0.688436 -6.723075 -0.0 0.0 -3e-06 
